<svg width="60" height="41" viewBox="0 0 60 41" fill="none" xmlns="http://www.w3.org/2000/svg">
<path d="M20.784 24.104C21 24.224 21.36 23.96 21.744 23.408L23.952 20.264C24.288 20.6 24.648 20.84 24.936 20.936C24.744 20.456 24.312 20.36 24.264 20.048L25.104 20.456C24.936 20.168 24.72 19.928 24.384 19.664L25.344 20.048C25.248 19.904 24.936 19.712 24.72 19.568C27.504 18.872 30.6 16.64 33.432 13.256C32.784 13.04 32.184 12.992 30.48 12.992C31.224 12.608 32.328 12.44 34.08 12.44C35.76 10.28 37.224 7.784 38.304 5.24C35.16 5.504 31.896 6.704 29.28 8.528C29.328 9.104 29.304 9.632 29.184 10.016C29.064 9.344 28.968 9.08 28.776 8.936C27.552 9.944 26.496 11.096 25.68 12.32C25.92 13.016 26.016 13.736 25.968 14.528C25.8 14 25.464 13.352 25.2 13.064C24.264 14.816 23.712 16.76 23.616 18.512C23.4 18.32 23.16 18.176 22.776 18.056C22.968 18.536 23.4 18.704 23.448 19.016L22.608 18.536C22.728 18.776 22.92 18.968 23.328 19.328L22.368 18.944C22.512 19.136 23.064 19.472 23.208 19.568L21.072 23C20.64 23.696 20.568 23.984 20.784 24.104ZM23.832 19.424C26.568 13.352 30.792 8.912 35.856 6.8C31.824 8.84 26.784 14.144 23.832 19.424Z" fill="white"/>
<line x1="19" y1="33.5" x2="46" y2="33.5" stroke="white"/>
</svg>
